<svg xmlns="http://www.w3.org/2000/svg" xmlns:xlink="http://www.w3.org/1999/xlink" width="500" zoomAndPan="magnify" viewBox="0 0 375 374.999991" height="500" preserveAspectRatio="xMidYMid meet" version="1.0"><defs><g/><linearGradient x1="0" gradientTransform="matrix(0.75, 0, 0, 0.75, 0.0000045, 0)" y1="250" x2="499.999979" gradientUnits="userSpaceOnUse" y2="250" id="27acee1f8e"><stop stop-opacity="1" stop-color="rgb(0%, 0%, 0%)" offset="0"/><stop stop-opacity="1" stop-color="rgb(0.175476%, 0.175476%, 0.175476%)" offset="0.0078125"/><stop stop-opacity="1" stop-color="rgb(0.526428%, 0.526428%, 0.526428%)" offset="0.015625"/><stop stop-opacity="1" stop-color="rgb(0.878906%, 0.878906%, 0.878906%)" offset="0.0234375"/><stop stop-opacity="1" stop-color="rgb(1.231384%, 1.231384%, 1.231384%)" offset="0.03125"/><stop stop-opacity="1" stop-color="rgb(1.583862%, 1.583862%, 1.583862%)" offset="0.0390625"/><stop stop-opacity="1" stop-color="rgb(1.93634%, 1.93634%, 1.93634%)" offset="0.046875"/><stop stop-opacity="1" stop-color="rgb(2.288818%, 2.288818%, 2.288818%)" offset="0.0546875"/><stop stop-opacity="1" stop-color="rgb(2.641296%, 2.641296%, 2.641296%)" offset="0.0625"/><stop stop-opacity="1" stop-color="rgb(2.993774%, 2.993774%, 2.993774%)" offset="0.0703125"/><stop stop-opacity="1" stop-color="rgb(3.346252%, 3.346252%, 3.346252%)" offset="0.078125"/><stop stop-opacity="1" stop-color="rgb(3.69873%, 3.69873%, 3.69873%)" offset="0.0859375"/><stop stop-opacity="1" stop-color="rgb(4.051208%, 4.051208%, 4.051208%)" offset="0.09375"/><stop stop-opacity="1" stop-color="rgb(4.402161%, 4.402161%, 4.402161%)" offset="0.101562"/><stop stop-opacity="1" stop-color="rgb(4.754639%, 4.754639%, 4.754639%)" offset="0.109375"/><stop stop-opacity="1" stop-color="rgb(5.107117%, 5.107117%, 5.107117%)" offset="0.117188"/><stop stop-opacity="1" stop-color="rgb(5.459595%, 5.459595%, 5.459595%)" offset="0.125"/><stop stop-opacity="1" stop-color="rgb(5.812073%, 5.812073%, 5.812073%)" offset="0.132812"/><stop stop-opacity="1" stop-color="rgb(6.164551%, 6.164551%, 6.164551%)" offset="0.140625"/><stop stop-opacity="1" stop-color="rgb(6.517029%, 6.517029%, 6.517029%)" offset="0.148437"/><stop stop-opacity="1" stop-color="rgb(6.869507%, 6.869507%, 6.869507%)" offset="0.15625"/><stop stop-opacity="1" stop-color="rgb(7.221985%, 7.221985%, 7.221985%)" offset="0.164062"/><stop stop-opacity="1" stop-color="rgb(7.574463%, 7.574463%, 7.574463%)" offset="0.171875"/><stop stop-opacity="1" stop-color="rgb(7.926941%, 7.926941%, 7.926941%)" offset="0.179687"/><stop stop-opacity="1" stop-color="rgb(8.277893%, 8.277893%, 8.277893%)" offset="0.1875"/><stop stop-opacity="1" stop-color="rgb(8.630371%, 8.630371%, 8.630371%)" offset="0.195312"/><stop stop-opacity="1" stop-color="rgb(8.982849%, 8.982849%, 8.982849%)" offset="0.203125"/><stop stop-opacity="1" stop-color="rgb(9.335327%, 9.335327%, 9.335327%)" offset="0.210938"/><stop stop-opacity="1" stop-color="rgb(9.687805%, 9.687805%, 9.687805%)" offset="0.21875"/><stop stop-opacity="1" stop-color="rgb(10.040283%, 10.040283%, 10.040283%)" offset="0.226562"/><stop stop-opacity="1" stop-color="rgb(10.392761%, 10.392761%, 10.392761%)" offset="0.234375"/><stop stop-opacity="1" stop-color="rgb(10.745239%, 10.745239%, 10.745239%)" offset="0.242188"/><stop stop-opacity="1" stop-color="rgb(11.097717%, 11.097717%, 11.097717%)" offset="0.25"/><stop stop-opacity="1" stop-color="rgb(11.450195%, 11.450195%, 11.450195%)" offset="0.257812"/><stop stop-opacity="1" stop-color="rgb(11.802673%, 11.802673%, 11.802673%)" offset="0.265625"/><stop stop-opacity="1" stop-color="rgb(12.155151%, 12.155151%, 12.155151%)" offset="0.273437"/><stop stop-opacity="1" stop-color="rgb(12.506104%, 12.506104%, 12.506104%)" offset="0.28125"/><stop stop-opacity="1" stop-color="rgb(12.858582%, 12.858582%, 12.858582%)" offset="0.289062"/><stop stop-opacity="1" stop-color="rgb(13.21106%, 13.21106%, 13.21106%)" offset="0.296875"/><stop stop-opacity="1" stop-color="rgb(13.563538%, 13.563538%, 13.563538%)" offset="0.304687"/><stop stop-opacity="1" stop-color="rgb(13.916016%, 13.916016%, 13.916016%)" offset="0.3125"/><stop stop-opacity="1" stop-color="rgb(14.268494%, 14.268494%, 14.268494%)" offset="0.320312"/><stop stop-opacity="1" stop-color="rgb(14.620972%, 14.620972%, 14.620972%)" offset="0.328125"/><stop stop-opacity="1" stop-color="rgb(14.97345%, 14.97345%, 14.97345%)" offset="0.335937"/><stop stop-opacity="1" stop-color="rgb(15.325928%, 15.325928%, 15.325928%)" offset="0.34375"/><stop stop-opacity="1" stop-color="rgb(15.678406%, 15.678406%, 15.678406%)" offset="0.351562"/><stop stop-opacity="1" stop-color="rgb(16.030884%, 16.030884%, 16.030884%)" offset="0.359375"/><stop stop-opacity="1" stop-color="rgb(16.381836%, 16.381836%, 16.381836%)" offset="0.367187"/><stop stop-opacity="1" stop-color="rgb(16.734314%, 16.734314%, 16.734314%)" offset="0.375"/><stop stop-opacity="1" stop-color="rgb(17.086792%, 17.086792%, 17.086792%)" offset="0.382812"/><stop stop-opacity="1" stop-color="rgb(17.43927%, 17.43927%, 17.43927%)" offset="0.390625"/><stop stop-opacity="1" stop-color="rgb(17.791748%, 17.791748%, 17.791748%)" offset="0.398438"/><stop stop-opacity="1" stop-color="rgb(18.144226%, 18.144226%, 18.144226%)" offset="0.40625"/><stop stop-opacity="1" stop-color="rgb(18.496704%, 18.496704%, 18.496704%)" offset="0.414062"/><stop stop-opacity="1" stop-color="rgb(18.849182%, 18.849182%, 18.849182%)" offset="0.421875"/><stop stop-opacity="1" stop-color="rgb(19.20166%, 19.20166%, 19.20166%)" offset="0.429688"/><stop stop-opacity="1" stop-color="rgb(19.554138%, 19.554138%, 19.554138%)" offset="0.4375"/><stop stop-opacity="1" stop-color="rgb(19.906616%, 19.906616%, 19.906616%)" offset="0.445312"/><stop stop-opacity="1" stop-color="rgb(20.257568%, 20.257568%, 20.257568%)" offset="0.453125"/><stop stop-opacity="1" stop-color="rgb(20.610046%, 20.610046%, 20.610046%)" offset="0.460938"/><stop stop-opacity="1" stop-color="rgb(20.962524%, 20.962524%, 20.962524%)" offset="0.46875"/><stop stop-opacity="1" stop-color="rgb(21.315002%, 21.315002%, 21.315002%)" offset="0.476562"/><stop stop-opacity="1" stop-color="rgb(21.66748%, 21.66748%, 21.66748%)" offset="0.484375"/><stop stop-opacity="1" stop-color="rgb(22.019958%, 22.019958%, 22.019958%)" offset="0.492188"/><stop stop-opacity="1" stop-color="rgb(22.372437%, 22.372437%, 22.372437%)" offset="0.5"/><stop stop-opacity="1" stop-color="rgb(22.724915%, 22.724915%, 22.724915%)" offset="0.507812"/><stop stop-opacity="1" stop-color="rgb(23.077393%, 23.077393%, 23.077393%)" offset="0.515625"/><stop stop-opacity="1" stop-color="rgb(23.429871%, 23.429871%, 23.429871%)" offset="0.523437"/><stop stop-opacity="1" stop-color="rgb(23.782349%, 23.782349%, 23.782349%)" offset="0.53125"/><stop stop-opacity="1" stop-color="rgb(24.134827%, 24.134827%, 24.134827%)" offset="0.539062"/><stop stop-opacity="1" stop-color="rgb(24.485779%, 24.485779%, 24.485779%)" offset="0.546875"/><stop stop-opacity="1" stop-color="rgb(24.838257%, 24.838257%, 24.838257%)" offset="0.554687"/><stop stop-opacity="1" stop-color="rgb(25.190735%, 25.190735%, 25.190735%)" offset="0.5625"/><stop stop-opacity="1" stop-color="rgb(25.543213%, 25.543213%, 25.543213%)" offset="0.570312"/><stop stop-opacity="1" stop-color="rgb(25.895691%, 25.895691%, 25.895691%)" offset="0.578125"/><stop stop-opacity="1" stop-color="rgb(26.248169%, 26.248169%, 26.248169%)" offset="0.585937"/><stop stop-opacity="1" stop-color="rgb(26.600647%, 26.600647%, 26.600647%)" offset="0.59375"/><stop stop-opacity="1" stop-color="rgb(26.953125%, 26.953125%, 26.953125%)" offset="0.601562"/><stop stop-opacity="1" stop-color="rgb(27.305603%, 27.305603%, 27.305603%)" offset="0.609375"/><stop stop-opacity="1" stop-color="rgb(27.658081%, 27.658081%, 27.658081%)" offset="0.617187"/><stop stop-opacity="1" stop-color="rgb(28.010559%, 28.010559%, 28.010559%)" offset="0.625"/><stop stop-opacity="1" stop-color="rgb(28.361511%, 28.361511%, 28.361511%)" offset="0.632812"/><stop stop-opacity="1" stop-color="rgb(28.713989%, 28.713989%, 28.713989%)" offset="0.640625"/><stop stop-opacity="1" stop-color="rgb(29.066467%, 29.066467%, 29.066467%)" offset="0.648437"/><stop stop-opacity="1" stop-color="rgb(29.418945%, 29.418945%, 29.418945%)" offset="0.65625"/><stop stop-opacity="1" stop-color="rgb(29.771423%, 29.771423%, 29.771423%)" offset="0.664062"/><stop stop-opacity="1" stop-color="rgb(30.123901%, 30.123901%, 30.123901%)" offset="0.671875"/><stop stop-opacity="1" stop-color="rgb(30.476379%, 30.476379%, 30.476379%)" offset="0.679687"/><stop stop-opacity="1" stop-color="rgb(30.828857%, 30.828857%, 30.828857%)" offset="0.6875"/><stop stop-opacity="1" stop-color="rgb(31.181335%, 31.181335%, 31.181335%)" offset="0.695312"/><stop stop-opacity="1" stop-color="rgb(31.533813%, 31.533813%, 31.533813%)" offset="0.703125"/><stop stop-opacity="1" stop-color="rgb(31.886292%, 31.886292%, 31.886292%)" offset="0.710937"/><stop stop-opacity="1" stop-color="rgb(32.237244%, 32.237244%, 32.237244%)" offset="0.71875"/><stop stop-opacity="1" stop-color="rgb(32.589722%, 32.589722%, 32.589722%)" offset="0.726562"/><stop stop-opacity="1" stop-color="rgb(32.9422%, 32.9422%, 32.9422%)" offset="0.734375"/><stop stop-opacity="1" stop-color="rgb(33.294678%, 33.294678%, 33.294678%)" offset="0.742187"/><stop stop-opacity="1" stop-color="rgb(33.647156%, 33.647156%, 33.647156%)" offset="0.75"/><stop stop-opacity="1" stop-color="rgb(33.999634%, 33.999634%, 33.999634%)" offset="0.757812"/><stop stop-opacity="1" stop-color="rgb(34.352112%, 34.352112%, 34.352112%)" offset="0.765625"/><stop stop-opacity="1" stop-color="rgb(34.70459%, 34.70459%, 34.70459%)" offset="0.773438"/><stop stop-opacity="1" stop-color="rgb(35.057068%, 35.057068%, 35.057068%)" offset="0.78125"/><stop stop-opacity="1" stop-color="rgb(35.409546%, 35.409546%, 35.409546%)" offset="0.789062"/><stop stop-opacity="1" stop-color="rgb(35.762024%, 35.762024%, 35.762024%)" offset="0.796875"/><stop stop-opacity="1" stop-color="rgb(36.114502%, 36.114502%, 36.114502%)" offset="0.804688"/><stop stop-opacity="1" stop-color="rgb(36.465454%, 36.465454%, 36.465454%)" offset="0.8125"/><stop stop-opacity="1" stop-color="rgb(36.817932%, 36.817932%, 36.817932%)" offset="0.820312"/><stop stop-opacity="1" stop-color="rgb(37.17041%, 37.17041%, 37.17041%)" offset="0.828125"/><stop stop-opacity="1" stop-color="rgb(37.522888%, 37.522888%, 37.522888%)" offset="0.835938"/><stop stop-opacity="1" stop-color="rgb(37.875366%, 37.875366%, 37.875366%)" offset="0.84375"/><stop stop-opacity="1" stop-color="rgb(38.227844%, 38.227844%, 38.227844%)" offset="0.851562"/><stop stop-opacity="1" stop-color="rgb(38.580322%, 38.580322%, 38.580322%)" offset="0.859375"/><stop stop-opacity="1" stop-color="rgb(38.9328%, 38.9328%, 38.9328%)" offset="0.867188"/><stop stop-opacity="1" stop-color="rgb(39.285278%, 39.285278%, 39.285278%)" offset="0.875"/><stop stop-opacity="1" stop-color="rgb(39.637756%, 39.637756%, 39.637756%)" offset="0.882812"/><stop stop-opacity="1" stop-color="rgb(39.990234%, 39.990234%, 39.990234%)" offset="0.890625"/><stop stop-opacity="1" stop-color="rgb(40.341187%, 40.341187%, 40.341187%)" offset="0.898438"/><stop stop-opacity="1" stop-color="rgb(40.693665%, 40.693665%, 40.693665%)" offset="0.90625"/><stop stop-opacity="1" stop-color="rgb(41.046143%, 41.046143%, 41.046143%)" offset="0.914062"/><stop stop-opacity="1" stop-color="rgb(41.398621%, 41.398621%, 41.398621%)" offset="0.921875"/><stop stop-opacity="1" stop-color="rgb(41.751099%, 41.751099%, 41.751099%)" offset="0.929688"/><stop stop-opacity="1" stop-color="rgb(42.103577%, 42.103577%, 42.103577%)" offset="0.9375"/><stop stop-opacity="1" stop-color="rgb(42.456055%, 42.456055%, 42.456055%)" offset="0.945312"/><stop stop-opacity="1" stop-color="rgb(42.808533%, 42.808533%, 42.808533%)" offset="0.953125"/><stop stop-opacity="1" stop-color="rgb(43.161011%, 43.161011%, 43.161011%)" offset="0.960938"/><stop stop-opacity="1" stop-color="rgb(43.513489%, 43.513489%, 43.513489%)" offset="0.96875"/><stop stop-opacity="1" stop-color="rgb(43.865967%, 43.865967%, 43.865967%)" offset="0.976562"/><stop stop-opacity="1" stop-color="rgb(44.216919%, 44.216919%, 44.216919%)" offset="0.984375"/><stop stop-opacity="1" stop-color="rgb(44.569397%, 44.569397%, 44.569397%)" offset="0.992188"/><stop stop-opacity="1" stop-color="rgb(44.921875%, 44.921875%, 44.921875%)" offset="1"/></linearGradient><clipPath id="5f952a271f"><path d="M 100 127 L 292 127 L 292 216 L 100 216 Z M 100 127 " clip-rule="nonzero"/></clipPath><clipPath id="7bd74acf9a"><path d="M 105.03125 123.402344 L 295.300781 132.699219 L 290.875 223.339844 L 100.601562 214.042969 Z M 105.03125 123.402344 " clip-rule="nonzero"/></clipPath><clipPath id="bce6c2e409"><path d="M 105.03125 123.402344 L 295.300781 132.699219 L 290.875 223.339844 L 100.601562 214.042969 Z M 105.03125 123.402344 " clip-rule="nonzero"/></clipPath></defs><rect x="-37.5" fill="url(#27acee1f8e)" width="450" y="-37.499999" height="449.999989"/><g clip-path="url(#5f952a271f)"><g clip-path="url(#7bd74acf9a)"><g clip-path="url(#bce6c2e409)"><path fill="#ffbd59" d="M 136.234375 185.808594 C 136.023438 185.945312 135.960938 186.222656 136.097656 186.433594 L 137.945312 189.304688 C 138.082031 189.515625 138.363281 189.574219 138.570312 189.441406 C 138.78125 189.304688 138.839844 189.027344 138.707031 188.816406 L 136.859375 185.945312 C 136.722656 185.734375 136.445312 185.671875 136.234375 185.808594 Z M 140.90625 187.402344 L 139.058594 184.53125 C 138.921875 184.320312 138.640625 184.257812 138.433594 184.394531 L 140.769531 188.027344 C 140.980469 187.890625 141.039062 187.613281 140.90625 187.402344 Z M 137.613281 184.921875 C 137.40625 185.054688 137.34375 185.335938 137.476562 185.546875 L 139.324219 188.417969 C 139.460938 188.628906 139.742188 188.6875 139.949219 188.554688 C 140.160156 188.417969 140.222656 188.140625 140.085938 187.929688 L 138.238281 185.054688 C 138.101562 184.847656 137.824219 184.785156 137.613281 184.921875 Z M 124.242188 194.0625 L 126.089844 196.9375 C 126.222656 197.144531 126.503906 197.207031 126.714844 197.070312 L 124.375 193.4375 C 124.167969 193.574219 124.105469 193.855469 124.242188 194.0625 Z M 134.855469 186.695312 C 134.644531 186.832031 134.582031 187.109375 134.71875 187.320312 L 136.566406 190.195312 C 136.703125 190.402344 136.980469 190.464844 137.191406 190.328125 C 137.402344 190.195312 137.460938 189.914062 137.328125 189.703125 L 135.476562 186.832031 C 135.34375 186.621094 135.0625 186.5625 134.855469 186.695312 Z M 129.667969 194.632812 C 129.800781 194.84375 130.082031 194.90625 130.292969 194.769531 C 130.503906 194.632812 130.5625 194.355469 130.429688 194.144531 L 128.578125 191.273438 C 128.445312 191.0625 128.164062 191.003906 127.953125 191.136719 C 127.746094 191.273438 127.683594 191.550781 127.820312 191.761719 Z M 127.53125 196.546875 C 127.742188 196.410156 127.800781 196.132812 127.667969 195.921875 L 125.816406 193.046875 C 125.683594 192.839844 125.402344 192.777344 125.191406 192.914062 C 124.984375 193.046875 124.921875 193.328125 125.058594 193.539062 L 126.90625 196.410156 C 127.042969 196.621094 127.320312 196.679688 127.53125 196.546875 Z M 134.429688 192.105469 C 134.640625 191.96875 134.703125 191.691406 134.566406 191.480469 L 132.71875 188.605469 C 132.585938 188.398438 132.304688 188.335938 132.09375 188.472656 C 131.882812 188.605469 131.824219 188.886719 131.957031 189.09375 L 133.808594 191.96875 C 133.941406 192.179688 134.222656 192.242188 134.429688 192.105469 Z M 129.332031 190.25 C 129.125 190.382812 129.0625 190.664062 129.199219 190.875 L 131.046875 193.746094 C 131.179688 193.957031 131.460938 194.015625 131.671875 193.882812 C 131.878906 193.746094 131.941406 193.46875 131.804688 193.257812 L 129.957031 190.382812 C 129.824219 190.175781 129.542969 190.113281 129.332031 190.25 Z M 133.050781 192.992188 C 133.261719 192.859375 133.320312 192.578125 133.1875 192.367188 L 131.339844 189.496094 C 131.203125 189.285156 130.925781 189.226562 130.714844 189.359375 C 130.503906 189.496094 130.441406 189.777344 130.578125 189.984375 L 132.425781 192.859375 C 132.5625 193.066406 132.839844 193.128906 133.050781 192.992188 Z M 133.472656 187.585938 C 133.265625 187.71875 133.203125 188 133.339844 188.210938 L 135.1875 191.082031 C 135.320312 191.292969 135.601562 191.351562 135.8125 191.21875 C 136.019531 191.082031 136.082031 190.804688 135.945312 190.59375 L 134.097656 187.71875 C 133.964844 187.511719 133.683594 187.449219 133.472656 187.585938 Z M 126.4375 192.648438 L 128.285156 195.523438 C 128.421875 195.734375 128.699219 195.792969 128.910156 195.660156 C 129.121094 195.523438 129.179688 195.246094 129.046875 195.035156 L 127.199219 192.164062 C 127.0625 191.953125 126.785156 191.890625 126.574219 192.027344 C 126.363281 192.160156 126.304688 192.441406 126.4375 192.648438 Z M 113.65625 204.34375 L 119.117188 200.128906 C 118.15625 198.441406 117.628906 196.636719 117.949219 194.414062 L 117.910156 194.4375 C 117.492188 195.539062 117.347656 196.820312 117.496094 197.910156 C 117.210938 197.320312 117.238281 195.808594 117.523438 194.667969 L 116.832031 195.085938 C 116.488281 196.273438 116.46875 197.65625 116.753906 198.789062 C 116.382812 198.191406 116.242188 196.496094 116.460938 195.308594 L 115.574219 195.84375 C 115.269531 197.125 115.367188 198.621094 115.785156 199.800781 C 115.324219 199.195312 115.011719 197.269531 115.203125 196.066406 L 114.097656 196.734375 C 113.917969 197.894531 114.035156 199.175781 114.402344 200.214844 C 113.992188 199.679688 113.707031 198.117188 113.777344 196.929688 L 112.863281 197.480469 C 112.847656 198.546875 113.074219 199.660156 113.484375 200.5625 C 113.066406 200.105469 112.675781 198.777344 112.589844 197.644531 L 111.273438 198.4375 C 111.476562 199.527344 111.957031 200.617188 112.574219 201.4375 C 112.039062 201.0625 111.320312 199.730469 111.007812 198.597656 L 111 198.605469 C 111.191406 200.890625 111.789062 202.628906 113.65625 204.34375 Z M 181.773438 202.542969 C 181.515625 202.53125 181.292969 202.871094 181.269531 203.300781 C 181.25 203.726562 181.4375 204.085938 181.695312 204.097656 C 181.953125 204.109375 182.175781 203.773438 182.199219 203.34375 C 182.21875 202.914062 182.027344 202.558594 181.773438 202.542969 Z M 212.476562 138.945312 C 212.480469 138.933594 212.484375 138.925781 212.484375 138.925781 C 212.816406 137.960938 213.527344 137.34375 214.714844 137 C 213.566406 136.539062 212.917969 135.855469 212.679688 134.859375 L 212.679688 134.84375 C 212.257812 136.082031 211.265625 136.558594 210.445312 136.792969 C 211.238281 137.105469 212.179688 137.671875 212.476562 138.945312 Z M 221.488281 146.804688 C 221.492188 146.796875 221.492188 146.789062 221.492188 146.789062 C 221.753906 146.03125 222.3125 145.546875 223.246094 145.277344 C 222.34375 144.914062 221.835938 144.375 221.648438 143.59375 L 221.648438 143.582031 C 221.316406 144.554688 220.535156 144.925781 219.890625 145.113281 C 220.515625 145.359375 221.253906 145.804688 221.488281 146.804688 Z M 180.984375 149.015625 C 180.988281 149 180.992188 148.988281 180.992188 148.988281 C 181.453125 147.648438 182.441406 146.792969 184.085938 146.316406 C 182.496094 145.675781 181.59375 144.726562 181.265625 143.34375 L 181.261719 143.320312 C 180.675781 145.039062 179.296875 145.699219 178.160156 146.027344 C 179.261719 146.460938 180.570312 147.25 180.984375 149.015625 Z M 195.871094 141.757812 C 195.875 141.746094 195.878906 141.734375 195.878906 141.734375 C 196.257812 140.632812 197.070312 139.929688 198.421875 139.535156 C 197.113281 139.011719 196.375 138.230469 196.105469 137.089844 L 196.101562 137.074219 C 195.621094 138.488281 194.484375 139.03125 193.550781 139.296875 C 194.457031 139.65625 195.53125 140.304688 195.871094 141.757812 Z M 162.726562 141.972656 C 164.097656 142.511719 165.730469 143.496094 166.246094 145.699219 C 166.253906 145.679688 166.253906 145.664062 166.253906 145.664062 C 166.832031 143.996094 168.0625 142.925781 170.113281 142.332031 C 168.128906 141.535156 167.007812 140.351562 166.597656 138.625 L 166.59375 138.597656 C 165.863281 140.742188 164.144531 141.5625 162.726562 141.972656 Z M 163.789062 132.355469 C 163.792969 132.34375 163.792969 132.335938 163.792969 132.335938 C 164.167969 131.25 164.96875 130.554688 166.304688 130.167969 C 165.011719 129.648438 164.285156 128.878906 164.015625 127.757812 L 164.015625 127.742188 C 163.539062 129.132812 162.421875 129.667969 161.5 129.933594 C 162.390625 130.285156 163.453125 130.925781 163.789062 132.355469 Z M 232.039062 143.734375 C 232.042969 143.722656 232.042969 143.714844 232.042969 143.714844 C 232.375 142.75 233.085938 142.132812 234.273438 141.789062 C 233.125 141.328125 232.476562 140.644531 232.242188 139.648438 L 232.238281 139.632812 C 231.816406 140.871094 230.824219 141.34375 230.003906 141.578125 C 230.800781 141.894531 231.738281 142.460938 232.039062 143.734375 Z M 251.898438 152.441406 C 251.90625 152.425781 251.90625 152.414062 251.90625 152.414062 C 252.363281 151.089844 253.339844 150.238281 254.972656 149.765625 C 253.394531 149.132812 252.503906 148.195312 252.179688 146.824219 L 252.175781 146.800781 C 251.597656 148.503906 250.230469 149.15625 249.105469 149.480469 C 250.195312 149.910156 251.488281 150.691406 251.898438 152.441406 Z M 227.84375 132.878906 C 227.84375 132.867188 227.847656 132.863281 227.847656 132.863281 C 228.125 132.050781 228.722656 131.535156 229.71875 131.246094 C 228.753906 130.859375 228.210938 130.285156 228.011719 129.449219 L 228.011719 129.433594 C 227.65625 130.476562 226.824219 130.875 226.136719 131.070312 C 226.800781 131.332031 227.589844 131.8125 227.84375 132.878906 Z M 118.199219 152.863281 C 118.203125 152.851562 118.203125 152.84375 118.203125 152.84375 C 118.515625 151.945312 119.179688 151.367188 120.28125 151.050781 C 119.214844 150.617188 118.609375 149.980469 118.390625 149.054688 L 118.386719 149.039062 C 117.992188 150.191406 117.070312 150.636719 116.304688 150.855469 C 117.042969 151.148438 117.921875 151.675781 118.199219 152.863281 Z M 148.757812 140.78125 C 148.765625 140.765625 148.765625 140.753906 148.765625 140.753906 C 149.199219 139.492188 150.132812 138.683594 151.6875 138.230469 C 150.183594 137.628906 149.335938 136.734375 149.027344 135.429688 L 149.023438 135.40625 C 148.46875 137.03125 147.171875 137.652344 146.097656 137.957031 C 147.136719 138.367188 148.367188 139.113281 148.757812 140.78125 Z M 245.65625 138.886719 C 245.660156 138.875 245.660156 138.871094 245.660156 138.871094 C 245.96875 137.972656 246.632812 137.394531 247.738281 137.074219 C 246.671875 136.644531 246.066406 136.007812 245.847656 135.078125 L 245.84375 135.0625 C 245.449219 136.21875 244.523438 136.660156 243.761719 136.882812 C 244.5 137.171875 245.378906 137.703125 245.65625 138.886719 Z M 268.46875 169.535156 C 268.476562 169.515625 268.476562 169.507812 268.476562 169.507812 C 268.992188 168.015625 270.089844 167.0625 271.917969 166.535156 C 270.148438 165.824219 269.148438 164.769531 268.785156 163.230469 L 268.777344 163.207031 C 268.128906 165.117188 266.597656 165.851562 265.332031 166.214844 C 266.554688 166.695312 268.007812 167.570312 268.46875 169.535156 Z M 213.421875 161.679688 L 208.558594 162.226562 L 208.335938 166.757812 L 213.195312 166.34375 Z M 146.105469 173.351562 L 149.472656 173.316406 L 149.648438 169.710938 L 146.265625 170 Z M 150.117188 173.3125 L 153.984375 173.273438 L 154.179688 169.328125 L 150.292969 169.65625 Z M 149.855469 165.441406 L 146.46875 165.824219 L 146.296875 169.339844 L 149.679688 169.050781 Z M 124.703125 165.878906 C 124.710938 165.859375 124.710938 165.847656 124.710938 165.847656 C 125.222656 164.359375 126.320312 163.40625 128.148438 162.875 C 126.382812 162.167969 125.382812 161.113281 125.015625 159.574219 L 125.011719 159.550781 C 124.363281 161.457031 122.832031 162.191406 121.566406 162.554688 C 122.789062 163.039062 124.242188 163.914062 124.703125 165.878906 Z M 271.210938 210.691406 L 271.417969 182.007812 L 254.332031 160.621094 L 208.644531 143.414062 L 198.78125 155.953125 L 191.691406 156.585938 L 191.765625 155.035156 L 187.289062 151.675781 L 184.5625 152.335938 L 184.320312 157.246094 L 180.207031 157.613281 L 163.851562 172.445312 L 176.824219 157.589844 L 154.59375 146.175781 L 134.023438 176.796875 L 154.5 151.820312 L 161.800781 176.410156 L 161.789062 185.152344 C 161.867188 184.675781 162.550781 180.078125 162.929688 177.507812 L 188.765625 177.078125 L 188.796875 188.972656 C 188.929688 188.1875 190.28125 179.566406 190.730469 176.707031 L 209.257812 150.085938 L 226.300781 178.652344 L 224.964844 205.980469 C 223.128906 205.882812 221.273438 205.796875 219.398438 205.71875 C 220.289062 205.289062 220.929688 204.441406 221.132812 203.425781 C 221.398438 202.113281 219.769531 196.484375 219.769531 196.484375 C 219.769531 196.484375 219.429688 195.894531 221.21875 194.277344 C 221.664062 193.871094 221.59375 192.785156 220.46875 192.667969 L 216.015625 192.207031 L 215.933594 193.015625 C 215.933594 193.015625 216.894531 193.324219 217.574219 193.722656 C 217.117188 194.496094 216.394531 195.105469 215.679688 195.347656 C 216.34375 195.515625 217.351562 195.019531 218.003906 194.1875 C 218.023438 194.160156 218.042969 194.128906 218.066406 194.101562 C 218.117188 194.160156 218.164062 194.222656 218.191406 194.28125 C 218.457031 194.917969 218.503906 195.300781 217.972656 196.40625 C 217.4375 197.507812 215.324219 200.277344 214.960938 202.789062 C 214.792969 203.949219 215.449219 205.03125 216.480469 205.601562 C 210.03125 205.359375 203.386719 205.207031 196.582031 205.167969 C 196.410156 205.164062 196.238281 205.164062 196.066406 205.164062 C 197.335938 204.632812 198.265625 203.359375 198.339844 201.828125 L 198.472656 199.125 C 198.480469 198.988281 198.476562 198.84375 198.46875 198.679688 L 198.617188 195.628906 C 198.625 195.476562 198.507812 195.34375 198.351562 195.335938 L 198.011719 195.320312 L 198.054688 194.417969 C 198.105469 193.351562 197.332031 192.441406 196.324219 192.394531 L 195.878906 192.371094 L 195.902344 191.902344 L 189.222656 191.574219 L 189.199219 192.046875 L 188.753906 192.023438 C 187.75 191.976562 186.886719 192.800781 186.835938 193.867188 L 186.789062 194.773438 L 186.429688 194.753906 C 186.277344 194.746094 186.144531 194.863281 186.136719 195.019531 L 185.972656 198.363281 C 185.972656 198.367188 185.972656 198.382812 185.96875 198.402344 C 185.964844 198.433594 185.960938 198.472656 185.960938 198.511719 L 185.828125 201.214844 C 185.824219 201.253906 185.828125 201.292969 185.824219 201.324219 C 185.828125 201.34375 185.828125 201.359375 185.828125 201.378906 C 185.828125 201.367188 185.824219 201.4375 185.824219 201.4375 C 185.824219 201.445312 185.828125 201.453125 185.828125 201.457031 C 185.847656 203.445312 187.332031 205.070312 189.199219 205.160156 L 189.242188 205.164062 C 186.875 205.175781 184.527344 205.203125 182.203125 205.238281 C 182.597656 204.804688 182.867188 204.128906 182.90625 203.363281 C 182.964844 202.144531 182.417969 201.105469 181.640625 200.867188 L 181.746094 198.742188 L 171.1875 198.226562 L 171.078125 200.488281 C 170.445312 200.820312 169.964844 201.6875 169.914062 202.726562 C 169.90625 202.90625 169.910156 203.082031 169.925781 203.25 L 168.152344 203.164062 L 168.214844 201.855469 L 168.410156 201.863281 L 168.5 200 L 168.152344 199.984375 L 168.992188 184.085938 C 169.066406 182.558594 170.503906 181.386719 172.195312 181.46875 C 173.882812 181.550781 175.199219 182.859375 175.125 184.382812 L 175.03125 186.269531 C 173.289062 186.777344 172.03125 188.03125 171.957031 189.558594 L 171.542969 198.054688 L 181.410156 198.535156 L 181.453125 197.636719 C 181.042969 197.734375 180.589844 197.785156 180.101562 197.78125 C 177.976562 197.769531 176.519531 197.316406 175.648438 196.394531 C 174.761719 195.453125 174.710938 194.253906 174.75 193.433594 C 174.789062 192.625 174.789062 191.585938 174.78125 190.746094 C 174.378906 190.535156 174.113281 190.101562 174.136719 189.617188 C 174.167969 188.953125 174.734375 188.4375 175.398438 188.46875 C 176.066406 188.503906 176.578125 189.070312 176.546875 189.734375 C 176.527344 190.128906 176.324219 190.464844 176.019531 190.671875 C 176.03125 191.539062 176.03125 192.625 175.988281 193.496094 C 175.941406 194.449219 176.117188 195.082031 176.550781 195.539062 C 177.167969 196.191406 178.367188 196.53125 180.109375 196.539062 C 180.644531 196.546875 181.113281 196.464844 181.515625 196.324219 L 181.726562 192.074219 C 181.722656 192.074219 181.722656 192.070312 181.71875 192.070312 L 181.726562 191.9375 C 182.628906 192.3125 183.675781 192.925781 183.640625 193.675781 C 183.566406 195.175781 182.445312 196.679688 180.109375 196.667969 C 178.332031 196.65625 177.101562 196.304688 176.460938 195.625 C 176 195.136719 175.816406 194.480469 175.863281 193.488281 C 175.910156 192.527344 175.90625 191.289062 175.890625 190.390625 C 176.09375 190.234375 176.230469 189.996094 176.242188 189.71875 C 176.269531 189.222656 175.882812 188.796875 175.386719 188.773438 C 174.886719 188.75 174.464844 189.132812 174.441406 189.632812 C 174.421875 189.988281 174.613281 190.300781 174.90625 190.464844 C 174.917969 191.347656 174.921875 192.53125 174.875 193.441406 C 174.839844 194.234375 174.886719 195.398438 175.742188 196.304688 C 176.589844 197.199219 178.015625 197.640625 180.105469 197.65625 C 183.078125 197.675781 184.535156 195.632812 184.628906 193.726562 C 184.703125 192.195312 182.890625 191.300781 181.777344 190.894531 L 181.785156 190.761719 C 181.785156 190.761719 181.789062 190.765625 181.789062 190.765625 L 181.8125 190.28125 C 181.824219 190.203125 181.832031 190.121094 181.835938 190.039062 C 181.9375 187.960938 179.808594 186.167969 177.082031 186.03125 C 176.726562 186.015625 176.375 186.027344 176.035156 186.066406 L 176.113281 184.429688 C 176.214844 182.359375 174.480469 180.589844 172.242188 180.480469 C 170.007812 180.371094 168.105469 181.964844 168.003906 184.035156 C 168.003906 184.03125 167.34375 196.542969 167.164062 199.933594 L 166.753906 199.914062 L 166.660156 201.777344 L 166.757812 201.78125 L 166.691406 203.09375 L 164.570312 202.988281 C 164.539062 202.988281 164.511719 202.996094 164.492188 203.011719 L 161.914062 203.867188 C 161.804688 203.863281 161.714844 203.945312 161.707031 204.054688 C 161.703125 204.160156 161.785156 204.253906 161.894531 204.257812 L 170.445312 204.675781 C 170.714844 205.03125 171.066406 205.253906 171.460938 205.273438 C 172.003906 205.300781 172.507812 204.941406 172.839844 204.363281 C 173.550781 204.871094 174.4375 205.230469 175.417969 205.386719 C 170.011719 205.535156 164.75 205.75 159.652344 206.027344 L 158.261719 194.925781 C 158.355469 194.90625 158.425781 194.832031 158.433594 194.734375 L 158.464844 194.046875 C 158.46875 194.019531 158.460938 193.992188 158.453125 193.96875 C 158.453125 193.960938 158.445312 193.953125 158.441406 193.945312 C 158.4375 193.933594 158.429688 193.917969 158.417969 193.90625 C 158.414062 193.898438 158.40625 193.890625 158.398438 193.882812 C 158.386719 193.875 158.378906 193.867188 158.367188 193.863281 C 158.355469 193.855469 158.34375 193.851562 158.332031 193.84375 C 158.328125 193.84375 158.324219 193.839844 158.320312 193.839844 L 158.320312 193.84375 C 158.304688 193.835938 158.289062 193.832031 158.269531 193.828125 L 158.148438 193.824219 L 158.78125 192.722656 L 156.957031 190.53125 L 151.535156 190.265625 L 151.535156 190.339844 L 150.660156 190.296875 L 150.609375 191.363281 L 151.480469 191.40625 L 151.480469 191.460938 L 152.332031 191.503906 L 152.789062 191.765625 L 152.742188 192.714844 C 152.742188 192.714844 152.742188 193.953125 151.210938 194.1875 C 151.207031 194.21875 151.214844 194.246094 151.226562 194.273438 C 151.230469 194.277344 151.230469 194.285156 151.234375 194.289062 C 151.25 194.316406 151.265625 194.335938 151.292969 194.355469 C 151.296875 194.359375 151.296875 194.359375 151.300781 194.363281 C 151.324219 194.382812 151.355469 194.398438 151.390625 194.410156 C 151.394531 194.410156 151.398438 194.414062 151.398438 194.414062 C 151.4375 194.429688 151.476562 194.4375 151.519531 194.445312 C 151.527344 194.445312 151.535156 194.445312 151.546875 194.445312 C 151.589844 194.453125 151.636719 194.457031 151.6875 194.453125 C 152.316406 194.441406 153.347656 193.933594 153.402344 192.683594 L 154.292969 193.035156 C 154.316406 193.042969 154.335938 193.054688 154.355469 193.0625 C 154.359375 193.066406 154.363281 193.070312 154.371094 193.074219 C 154.382812 193.082031 154.398438 193.089844 154.410156 193.101562 C 154.414062 193.105469 154.417969 193.109375 154.421875 193.109375 C 154.4375 193.125 154.453125 193.140625 154.464844 193.152344 C 154.46875 193.15625 154.472656 193.160156 154.472656 193.164062 C 154.484375 193.175781 154.496094 193.1875 154.503906 193.199219 C 154.507812 193.203125 154.511719 193.210938 154.515625 193.214844 C 154.523438 193.226562 154.53125 193.242188 154.539062 193.253906 C 154.542969 193.257812 154.546875 193.261719 154.546875 193.265625 C 154.554688 193.28125 154.566406 193.296875 154.574219 193.308594 C 154.578125 193.316406 154.582031 193.324219 154.585938 193.335938 C 154.589844 193.339844 154.59375 193.347656 154.597656 193.355469 C 154.617188 193.394531 154.636719 193.433594 154.652344 193.46875 C 154.652344 193.46875 154.65625 193.46875 154.65625 193.46875 C 154.664062 193.484375 154.671875 193.496094 154.679688 193.507812 C 154.6875 193.519531 154.695312 193.53125 154.703125 193.542969 C 154.710938 193.550781 154.71875 193.558594 154.726562 193.5625 C 154.726562 193.5625 154.730469 193.566406 154.730469 193.566406 C 154.75 193.574219 154.769531 193.578125 154.792969 193.570312 C 154.792969 193.570312 154.796875 193.570312 154.796875 193.570312 C 154.808594 193.566406 154.820312 193.5625 154.832031 193.554688 C 154.832031 193.554688 154.835938 193.550781 154.835938 193.550781 C 154.90625 193.507812 155.003906 193.402344 155.144531 193.203125 L 155.378906 193.6875 L 155.109375 193.675781 C 155.09375 193.675781 155.078125 193.679688 155.0625 193.683594 L 155.0625 193.679688 C 155.054688 193.679688 155.050781 193.683594 155.046875 193.683594 C 155.035156 193.6875 155.023438 193.691406 155.011719 193.699219 C 155 193.703125 154.988281 193.710938 154.980469 193.71875 C 154.972656 193.722656 154.960938 193.730469 154.953125 193.738281 C 154.941406 193.75 154.933594 193.761719 154.925781 193.773438 C 154.921875 193.78125 154.914062 193.789062 154.914062 193.796875 C 154.902344 193.820312 154.894531 193.84375 154.894531 193.871094 L 154.859375 194.558594 C 154.855469 194.675781 154.941406 194.769531 155.054688 194.777344 L 155.277344 194.789062 C 154.769531 198.929688 152.175781 200.5 152.179688 200.503906 C 151.242188 201.019531 150.585938 201.996094 150.53125 203.144531 C 150.453125 204.746094 151.574219 206.128906 153.109375 206.425781 C 149.976562 206.636719 146.921875 206.875 143.949219 207.132812 L 137.304688 196.808594 L 137.171875 195.324219 L 136.976562 193.132812 L 141.605469 190.152344 C 142.019531 189.886719 142.027344 189.140625 141.691406 188.335938 L 126.617188 198.035156 C 127.207031 198.675781 127.890625 198.976562 128.304688 198.710938 L 132.933594 195.734375 L 134.847656 196.820312 L 136.144531 197.550781 L 142.398438 207.273438 C 135.363281 207.910156 128.804688 208.679688 122.839844 209.5625 C 121.800781 208.578125 120.933594 207.628906 120.296875 206.785156 C 120.160156 206.605469 120.035156 206.433594 119.921875 206.269531 C 121.292969 204.996094 121.710938 202.722656 119.46875 200.503906 L 113.855469 204.855469 C 115.164062 207.476562 117.554688 207.742188 119.222656 206.785156 C 119.339844 206.957031 119.464844 207.132812 119.601562 207.3125 C 120.160156 208.050781 120.894531 208.871094 121.757812 209.722656 C 113.402344 210.996094 106.242188 212.488281 100.59375 214.160156 C 127.398438 210.722656 160.566406 208.792969 196.390625 209.011719 C 232.214844 209.230469 265.171875 211.566406 291.617188 215.328125 C 286.207031 213.613281 279.304688 212.050781 271.210938 210.691406 Z M 174.300781 197.433594 L 172.320312 197.339844 L 172.335938 197.070312 L 174.3125 197.164062 Z M 174.328125 196.832031 L 172.351562 196.734375 L 172.363281 196.464844 L 174.34375 196.5625 Z M 174.359375 196.230469 L 172.378906 196.132812 L 172.394531 195.863281 L 174.371094 195.960938 Z M 174.402344 195.359375 L 174.390625 195.628906 L 172.410156 195.53125 L 172.421875 195.261719 Z M 166.914062 201.546875 C 166.914062 201.5625 166.898438 201.578125 166.878906 201.578125 C 166.859375 201.574219 166.847656 201.558594 166.847656 201.542969 L 166.917969 200.132812 C 166.917969 200.117188 166.933594 200.101562 166.953125 200.101562 C 166.96875 200.101562 166.984375 200.117188 166.984375 200.136719 Z M 167.125 201.554688 C 167.125 201.574219 167.109375 201.589844 167.089844 201.585938 C 167.074219 201.585938 167.058594 201.570312 167.058594 201.550781 L 167.128906 200.144531 C 167.128906 200.125 167.144531 200.109375 167.164062 200.113281 C 167.179688 200.113281 167.195312 200.128906 167.195312 200.148438 Z M 167.339844 201.566406 C 167.339844 201.585938 167.324219 201.597656 167.304688 201.597656 C 167.285156 201.597656 167.273438 201.582031 167.273438 201.5625 L 167.34375 200.152344 C 167.34375 200.136719 167.359375 200.121094 167.375 200.121094 C 167.394531 200.125 167.410156 200.136719 167.40625 200.15625 Z M 167.550781 201.578125 C 167.550781 201.59375 167.535156 201.609375 167.519531 201.609375 C 167.5 201.605469 167.484375 201.589844 167.488281 201.574219 L 167.554688 200.164062 C 167.558594 200.148438 167.574219 200.132812 167.589844 200.132812 C 167.609375 200.132812 167.621094 200.148438 167.621094 200.167969 Z M 167.765625 201.585938 C 167.765625 201.605469 167.75 201.621094 167.730469 201.617188 C 167.714844 201.617188 167.699219 201.601562 167.699219 201.582031 L 167.769531 200.175781 C 167.769531 200.15625 167.785156 200.140625 167.804688 200.144531 C 167.820312 200.144531 167.835938 200.160156 167.835938 200.179688 Z M 167.976562 201.597656 C 167.976562 201.617188 167.960938 201.628906 167.945312 201.628906 C 167.925781 201.628906 167.910156 201.613281 167.914062 201.59375 L 167.980469 200.183594 C 167.980469 200.167969 167.996094 200.152344 168.015625 200.152344 C 168.035156 200.15625 168.046875 200.167969 168.046875 200.1875 Z M 168.191406 201.609375 C 168.191406 201.625 168.171875 201.640625 168.15625 201.640625 C 168.136719 201.636719 168.125 201.621094 168.125 201.605469 L 168.195312 200.195312 C 168.195312 200.179688 168.210938 200.164062 168.226562 200.164062 C 168.246094 200.164062 168.261719 200.179688 168.257812 200.199219 Z M 172.109375 204.394531 C 172.078125 204.375 172.046875 204.363281 172.011719 204.363281 L 171.261719 203.890625 C 171.105469 203.585938 171.019531 203.183594 171.042969 202.746094 C 171.054688 202.507812 171.097656 202.28125 171.160156 202.082031 C 171.371094 202.855469 171.851562 203.558594 172.523438 204.125 C 172.398438 204.261719 172.257812 204.355469 172.109375 204.394531 Z M 177.828125 205.324219 C 178.546875 205.171875 179.207031 204.902344 179.761719 204.539062 C 179.871094 204.828125 180.023438 205.078125 180.203125 205.277344 C 179.410156 205.289062 178.617188 205.308594 177.828125 205.324219 Z M 181.585938 204.882812 C 181.050781 204.859375 180.652344 204.113281 180.695312 203.214844 C 180.738281 202.320312 181.210938 201.617188 181.742188 201.644531 C 182.277344 201.667969 182.675781 202.414062 182.632812 203.3125 C 182.585938 204.207031 182.121094 204.910156 181.585938 204.882812 Z M 187.386719 193.898438 C 187.425781 193.136719 188.027344 192.546875 188.726562 192.582031 L 189.167969 192.601562 L 189.148438 193.003906 L 195.828125 193.332031 L 195.847656 192.929688 L 196.292969 192.953125 C 196.992188 192.984375 197.53125 193.632812 197.496094 194.390625 L 197.453125 195.292969 L 192.847656 195.070312 C 192.785156 194.957031 192.714844 194.847656 192.628906 194.746094 L 188.65625 194.550781 C 188.5625 194.644531 188.476562 194.746094 188.40625 194.851562 L 187.34375 194.800781 Z M 189.226562 204.605469 C 187.648438 204.527344 186.398438 203.140625 186.382812 201.449219 C 186.378906 201.441406 186.378906 201.441406 186.378906 201.4375 L 186.378906 201.394531 C 186.382812 201.359375 186.382812 201.339844 186.378906 201.316406 C 186.378906 201.292969 186.378906 201.265625 186.378906 201.242188 L 186.511719 198.539062 C 186.511719 198.515625 186.515625 198.492188 186.519531 198.464844 C 186.523438 198.445312 186.523438 198.421875 186.527344 198.398438 L 186.675781 195.324219 L 188.148438 195.394531 C 188.109375 195.523438 188.085938 195.65625 188.078125 195.792969 L 187.792969 201.621094 C 187.78125 201.878906 187.980469 202.097656 188.238281 202.109375 C 188.496094 202.125 188.714844 201.925781 188.730469 201.664062 L 188.84375 199.324219 C 188.9375 199.398438 189.042969 199.460938 189.148438 199.519531 L 189 202.570312 C 188.988281 202.828125 189.1875 203.046875 189.445312 203.058594 C 189.703125 203.074219 189.921875 202.875 189.9375 202.617188 L 190.070312 199.832031 C 190.175781 199.847656 190.28125 199.859375 190.390625 199.863281 C 190.472656 199.867188 190.550781 199.867188 190.632812 199.867188 L 190.480469 202.921875 C 190.46875 203.183594 190.667969 203.402344 190.925781 203.414062 C 191.1875 203.425781 191.40625 203.226562 191.417969 202.96875 L 191.578125 199.675781 C 191.722656 199.621094 191.855469 199.550781 191.984375 199.472656 L 191.863281 201.929688 C 191.851562 202.1875 192.046875 202.40625 192.308594 202.421875 C 192.566406 202.433594 192.785156 202.234375 192.796875 201.976562 L 193.027344 197.300781 L 193.613281 198.1875 C 193.757812 198.402344 194.046875 198.464844 194.261719 198.320312 C 194.476562 198.175781 194.535156 197.886719 194.394531 197.671875 L 193.0625 195.664062 C 193.0625 195.652344 193.058594 195.644531 193.058594 195.636719 L 198.042969 195.878906 L 197.90625 198.664062 C 197.90625 198.675781 197.90625 198.6875 197.910156 198.695312 C 197.917969 198.84375 197.921875 198.976562 197.914062 199.097656 L 197.78125 201.800781 C 197.695312 203.570312 196.28125 204.949219 194.625 204.867188 Z M 245.777344 199.636719 L 239.878906 199 L 240.171875 192.949219 L 246.050781 194.035156 Z M 246.097656 193.023438 L 240.222656 191.9375 L 240.5 186.214844 L 246.371094 187.460938 Z M 251.894531 200.292969 L 246.757812 199.738281 L 247.027344 194.210938 L 252.144531 195.15625 Z M 252.195312 194.144531 L 247.078125 193.203125 L 247.347656 187.667969 L 252.457031 188.757812 Z M 260.410156 200.554688 L 255.601562 200.035156 L 255.84375 195.105469 L 260.632812 195.988281 Z M 260.675781 195.160156 L 255.882812 194.277344 L 256.109375 189.613281 L 260.898438 190.628906 Z M 265.398438 201.09375 L 261.210938 200.640625 L 261.433594 196.132812 L 265.601562 196.902344 Z M 265.644531 196.078125 L 261.472656 195.308594 L 261.691406 190.796875 L 265.859375 191.683594 Z M 132.558594 152.988281 C 132.5625 152.972656 132.566406 152.964844 132.566406 152.964844 C 132.964844 151.804688 133.824219 151.058594 135.25 150.644531 C 133.867188 150.089844 133.089844 149.265625 132.804688 148.066406 L 132.800781 148.046875 C 132.292969 149.539062 131.097656 150.109375 130.109375 150.394531 C 131.066406 150.769531 132.199219 151.453125 132.558594 152.988281 Z M 208.074219 172.152344 L 212.914062 172.105469 L 213.152344 167.171875 L 208.296875 167.585938 Z M 200.222656 199.75 C 204.484375 199.488281 208.753906 199.289062 213.023438 199.152344 L 214.042969 178.242188 L 201.226562 179.167969 Z M 207.75 162.316406 L 203.519531 162.792969 L 203.304688 167.1875 L 207.53125 166.828125 Z M 203.058594 172.199219 L 207.269531 172.160156 L 207.488281 167.652344 L 203.261719 168.011719 Z M 154.394531 164.933594 L 150.503906 165.371094 L 150.328125 168.996094 L 154.210938 168.664062 Z M 154.394531 164.933594 " fill-opacity="1" fill-rule="evenodd"/></g></g></g><g fill="#ffbd59" fill-opacity="1"><g transform="translate(85.453124, 245.760145)"><g><path d="M 24.34375 -4.3125 C 24.75 -3.257812 25.113281 -2.441406 25.4375 -1.859375 C 25.757812 -1.285156 26.097656 -0.867188 26.453125 -0.609375 C 26.804688 -0.359375 27.234375 -0.203125 27.734375 -0.140625 L 27.734375 0 L 16.90625 0 L 16.90625 -0.140625 C 17.707031 -0.203125 18.367188 -0.351562 18.890625 -0.59375 C 19.421875 -0.832031 19.753906 -1.226562 19.890625 -1.78125 C 20.023438 -2.332031 19.890625 -3.109375 19.484375 -4.109375 L 18.796875 -5.8125 L 5.71875 -5.8125 L 4.96875 -4.109375 C 4.53125 -3.128906 4.367188 -2.375 4.484375 -1.84375 C 4.597656 -1.320312 4.882812 -0.941406 5.34375 -0.703125 C 5.800781 -0.460938 6.347656 -0.273438 6.984375 -0.140625 L 6.984375 0 L 0.6875 0 L 0.6875 -0.140625 C 1.164062 -0.273438 1.59375 -0.46875 1.96875 -0.71875 C 2.34375 -0.96875 2.707031 -1.351562 3.0625 -1.875 C 3.414062 -2.40625 3.796875 -3.160156 4.203125 -4.140625 L 11.703125 -21.4375 L 11.640625 -22.421875 L 12.296875 -22.796875 L 16.328125 -24.953125 C 16.328125 -24.859375 16.363281 -24.65625 16.4375 -24.34375 C 16.519531 -24.039062 16.742188 -23.445312 17.109375 -22.5625 Z M 5.953125 -6.4375 L 18.5625 -6.4375 L 12.5 -21.53125 Z M 5.953125 -6.4375 "/></g></g></g><g fill="#ffbd59" fill-opacity="1"><g transform="translate(113.864465, 245.760145)"><g><path d="M 13.046875 0.484375 C 12.285156 0.484375 11.460938 0.398438 10.578125 0.234375 C 9.691406 0.078125 8.804688 -0.203125 7.921875 -0.609375 C 7.046875 -1.023438 6.25 -1.59375 5.53125 -2.3125 C 4.8125 -3.03125 4.226562 -3.941406 3.78125 -5.046875 C 3.332031 -6.148438 3.109375 -7.492188 3.109375 -9.078125 L 3.109375 -22.015625 C 3.109375 -22.628906 2.851562 -23.054688 2.34375 -23.296875 C 1.832031 -23.535156 1.222656 -23.703125 0.515625 -23.796875 L 0.515625 -23.96875 L 10.40625 -23.96875 L 10.40625 -23.796875 C 9.695312 -23.703125 9.085938 -23.535156 8.578125 -23.296875 C 8.066406 -23.054688 7.8125 -22.628906 7.8125 -22.015625 L 7.8125 -8.65625 C 7.8125 -7.0625 8.015625 -5.75 8.421875 -4.71875 C 8.828125 -3.695312 9.363281 -2.894531 10.03125 -2.3125 C 10.695312 -1.726562 11.398438 -1.320312 12.140625 -1.09375 C 12.878906 -0.863281 13.578125 -0.75 14.234375 -0.75 C 15.035156 -0.75 15.859375 -0.894531 16.703125 -1.1875 C 17.546875 -1.488281 18.332031 -1.957031 19.0625 -2.59375 C 19.789062 -3.238281 20.382812 -4.0625 20.84375 -5.0625 C 21.300781 -6.070312 21.53125 -7.296875 21.53125 -8.734375 L 21.53125 -18.515625 C 21.53125 -19.890625 21.40625 -20.945312 21.15625 -21.6875 C 20.90625 -22.425781 20.5625 -22.957031 20.125 -23.28125 C 19.695312 -23.601562 19.1875 -23.785156 18.59375 -23.828125 L 18.59375 -24 L 24.859375 -24 L 24.859375 -23.828125 C 24.398438 -23.785156 23.96875 -23.660156 23.5625 -23.453125 C 23.164062 -23.242188 22.847656 -22.828125 22.609375 -22.203125 C 22.367188 -21.578125 22.25 -20.578125 22.25 -19.203125 L 22.25 -9.140625 C 22.25 -7.066406 21.847656 -5.3125 21.046875 -3.875 C 20.253906 -2.4375 19.160156 -1.347656 17.765625 -0.609375 C 16.367188 0.117188 14.796875 0.484375 13.046875 0.484375 Z M 13.046875 0.484375 "/></g></g></g><g fill="#ffbd59" fill-opacity="1"><g transform="translate(139.229285, 245.760145)"><g><path d="M 11.46875 -23.96875 C 15.894531 -23.96875 19.257812 -22.972656 21.5625 -20.984375 C 23.875 -18.992188 25.03125 -16.195312 25.03125 -12.59375 C 25.03125 -9.90625 24.410156 -7.617188 23.171875 -5.734375 C 21.941406 -3.847656 20.253906 -2.421875 18.109375 -1.453125 C 15.960938 -0.484375 13.519531 0 10.78125 0 L 0.515625 0 L 0.515625 -0.171875 C 1.222656 -0.421875 1.832031 -0.738281 2.34375 -1.125 C 2.851562 -1.519531 3.109375 -2.023438 3.109375 -2.640625 L 3.109375 -22.015625 C 3.109375 -22.628906 2.851562 -23.054688 2.34375 -23.296875 C 1.832031 -23.535156 1.222656 -23.703125 0.515625 -23.796875 L 0.515625 -23.96875 Z M 12.53125 -0.609375 C 14.039062 -0.609375 15.359375 -0.910156 16.484375 -1.515625 C 17.609375 -2.128906 18.484375 -3.164062 19.109375 -4.625 C 19.742188 -6.082031 20.0625 -8.101562 20.0625 -10.6875 C 20.0625 -13.21875 19.710938 -15.4375 19.015625 -17.34375 C 18.316406 -19.25 17.234375 -20.738281 15.765625 -21.8125 C 14.296875 -22.882812 12.40625 -23.421875 10.09375 -23.421875 L 7.8125 -23.421875 L 7.8125 -1.578125 C 8.46875 -1.273438 9.1875 -1.035156 9.96875 -0.859375 C 10.757812 -0.691406 11.613281 -0.609375 12.53125 -0.609375 Z M 12.53125 -0.609375 "/></g></g></g><g fill="#ffbd59" fill-opacity="1"><g transform="translate(165.621018, 245.760145)"><g><path d="M 14.75 -24.4375 C 16.601562 -24.4375 18.328125 -24.148438 19.921875 -23.578125 C 21.523438 -23.015625 22.925781 -22.191406 24.125 -21.109375 C 25.320312 -20.023438 26.253906 -18.710938 26.921875 -17.171875 C 27.597656 -15.628906 27.9375 -13.898438 27.9375 -11.984375 C 27.9375 -10.066406 27.597656 -8.335938 26.921875 -6.796875 C 26.253906 -5.253906 25.320312 -3.941406 24.125 -2.859375 C 22.925781 -1.773438 21.523438 -0.945312 19.921875 -0.375 C 18.328125 0.195312 16.601562 0.484375 14.75 0.484375 C 12.882812 0.484375 11.148438 0.195312 9.546875 -0.375 C 7.953125 -0.945312 6.554688 -1.773438 5.359375 -2.859375 C 4.160156 -3.941406 3.222656 -5.253906 2.546875 -6.796875 C 1.878906 -8.335938 1.546875 -10.066406 1.546875 -11.984375 C 1.546875 -13.898438 1.878906 -15.628906 2.546875 -17.171875 C 3.222656 -18.710938 4.160156 -20.023438 5.359375 -21.109375 C 6.554688 -22.191406 7.953125 -23.015625 9.546875 -23.578125 C 11.148438 -24.148438 12.882812 -24.4375 14.75 -24.4375 Z M 16.1875 -0.140625 C 17.5625 -0.140625 18.753906 -0.539062 19.765625 -1.34375 C 20.785156 -2.15625 21.570312 -3.28125 22.125 -4.71875 C 22.6875 -6.15625 22.96875 -7.820312 22.96875 -9.71875 C 22.96875 -11.4375 22.734375 -13.125 22.265625 -14.78125 C 21.796875 -16.445312 21.128906 -17.957031 20.265625 -19.3125 C 19.398438 -20.675781 18.375 -21.769531 17.1875 -22.59375 C 16 -23.414062 14.695312 -23.828125 13.28125 -23.828125 C 11.914062 -23.828125 10.722656 -23.425781 9.703125 -22.625 C 8.691406 -21.832031 7.90625 -20.710938 7.34375 -19.265625 C 6.78125 -17.828125 6.5 -16.164062 6.5 -14.28125 C 6.5 -12.5625 6.734375 -10.863281 7.203125 -9.1875 C 7.671875 -7.507812 8.335938 -5.992188 9.203125 -4.640625 C 10.078125 -3.285156 11.101562 -2.195312 12.28125 -1.375 C 13.46875 -0.550781 14.769531 -0.140625 16.1875 -0.140625 Z M 16.1875 -0.140625 "/></g></g></g><g fill="#ffbd59" fill-opacity="1"><g transform="translate(195.093501, 245.760145)"><g><path d="M 20.546875 -4.515625 C 21.222656 -3.609375 21.828125 -2.882812 22.359375 -2.34375 C 22.898438 -1.8125 23.429688 -1.378906 23.953125 -1.046875 C 24.484375 -0.710938 25.046875 -0.398438 25.640625 -0.109375 L 25.640625 0 L 18.25 0 L 18.25 -0.578125 L 11.8125 -9.65625 L 7.8125 -9.65625 L 7.8125 -1.953125 C 7.8125 -1.335938 8.066406 -0.910156 8.578125 -0.671875 C 9.085938 -0.429688 9.695312 -0.265625 10.40625 -0.171875 L 10.40625 0 L 0.515625 0 L 0.515625 -0.171875 C 1.222656 -0.265625 1.832031 -0.429688 2.34375 -0.671875 C 2.851562 -0.910156 3.109375 -1.335938 3.109375 -1.953125 L 3.109375 -22.015625 C 3.109375 -22.628906 2.851562 -23.054688 2.34375 -23.296875 C 1.832031 -23.535156 1.222656 -23.703125 0.515625 -23.796875 L 0.515625 -23.96875 L 13.421875 -23.96875 C 16.472656 -23.96875 18.84375 -23.445312 20.53125 -22.40625 C 22.226562 -21.363281 23.078125 -19.726562 23.078125 -17.5 C 23.078125 -15.78125 22.484375 -14.273438 21.296875 -12.984375 C 20.109375 -11.703125 18.472656 -10.773438 16.390625 -10.203125 Z M 7.8125 -23.34375 L 7.8125 -10.984375 C 9.632812 -10.460938 11.445312 -10.203125 13.25 -10.203125 C 14.414062 -10.203125 15.378906 -10.359375 16.140625 -10.671875 C 16.898438 -10.992188 17.472656 -11.582031 17.859375 -12.4375 C 18.253906 -13.300781 18.453125 -14.519531 18.453125 -16.09375 C 18.453125 -17 18.363281 -17.878906 18.1875 -18.734375 C 18.019531 -19.597656 17.695312 -20.375 17.21875 -21.0625 C 16.738281 -21.757812 16.039062 -22.3125 15.125 -22.71875 C 14.21875 -23.132812 13.035156 -23.34375 11.578125 -23.34375 Z M 7.8125 -23.34375 "/></g></g></g><g fill="#ffbd59" fill-opacity="1"><g transform="translate(220.389863, 245.760145)"><g><path d="M 19.546875 -23.96875 L 20.8125 -17.9375 L 20.671875 -17.875 C 19.804688 -19.144531 19.019531 -20.191406 18.3125 -21.015625 C 17.601562 -21.835938 16.796875 -22.441406 15.890625 -22.828125 C 14.992188 -23.222656 13.804688 -23.421875 12.328125 -23.421875 L 7.8125 -23.421875 L 7.8125 -11.90625 L 10.984375 -11.90625 C 12.398438 -11.90625 13.546875 -12.023438 14.421875 -12.265625 C 15.304688 -12.503906 16 -12.921875 16.5 -13.515625 C 17 -14.109375 17.390625 -14.929688 17.671875 -15.984375 L 17.671875 -7.328125 C 17.390625 -8.378906 17 -9.191406 16.5 -9.765625 C 16 -10.347656 15.304688 -10.757812 14.421875 -11 C 13.546875 -11.238281 12.398438 -11.359375 10.984375 -11.359375 L 7.8125 -11.359375 L 7.8125 -1.953125 C 7.8125 -1.335938 8.066406 -0.910156 8.578125 -0.671875 C 9.085938 -0.429688 9.695312 -0.265625 10.40625 -0.171875 L 10.40625 0 L 0.515625 0 L 0.515625 -0.171875 C 1.222656 -0.421875 1.832031 -0.738281 2.34375 -1.125 C 2.851562 -1.519531 3.109375 -2.023438 3.109375 -2.640625 L 3.109375 -22.015625 C 3.109375 -22.628906 2.851562 -23.054688 2.34375 -23.296875 C 1.832031 -23.535156 1.222656 -23.703125 0.515625 -23.796875 L 0.515625 -23.96875 Z M 19.546875 -23.96875 "/></g></g></g><g fill="#ffbd59" fill-opacity="1"><g transform="translate(241.886638, 245.760145)"><g><path d="M 21.703125 -7.296875 L 21.84375 -7.21875 L 20.03125 0 L 19.828125 0.75 L 18.65625 0 L 0.515625 0 L 0.515625 -0.171875 C 1.222656 -0.421875 1.832031 -0.738281 2.34375 -1.125 C 2.851562 -1.519531 3.109375 -2.023438 3.109375 -2.640625 L 3.109375 -22.015625 C 3.109375 -22.628906 2.851562 -23.054688 2.34375 -23.296875 C 1.832031 -23.535156 1.222656 -23.703125 0.515625 -23.796875 L 0.515625 -23.96875 L 19.34375 -23.96875 L 20.609375 -17.9375 L 20.46875 -17.875 C 19.601562 -19.144531 18.816406 -20.191406 18.109375 -21.015625 C 17.398438 -21.835938 16.59375 -22.441406 15.6875 -22.828125 C 14.789062 -23.222656 13.601562 -23.421875 12.125 -23.421875 L 7.8125 -23.421875 L 7.8125 -12.25 L 10.6875 -12.25 C 12.09375 -12.25 13.234375 -12.367188 14.109375 -12.609375 C 14.992188 -12.847656 15.6875 -13.265625 16.1875 -13.859375 C 16.695312 -14.453125 17.085938 -15.273438 17.359375 -16.328125 L 17.359375 -7.671875 C 17.085938 -8.722656 16.695312 -9.535156 16.1875 -10.109375 C 15.6875 -10.691406 14.992188 -11.101562 14.109375 -11.34375 C 13.234375 -11.582031 12.09375 -11.703125 10.6875 -11.703125 L 7.8125 -11.703125 L 7.8125 -0.546875 L 12.328125 -0.546875 C 13.804688 -0.546875 15.070312 -0.789062 16.125 -1.28125 C 17.175781 -1.769531 18.132812 -2.507812 19 -3.5 C 19.863281 -4.5 20.765625 -5.765625 21.703125 -7.296875 Z M 21.703125 -7.296875 "/></g></g></g><g fill="#ffbd59" fill-opacity="1"><g transform="translate(264.239168, 245.760145)"><g><path d="M 20.546875 -4.515625 C 21.222656 -3.609375 21.828125 -2.882812 22.359375 -2.34375 C 22.898438 -1.8125 23.429688 -1.378906 23.953125 -1.046875 C 24.484375 -0.710938 25.046875 -0.398438 25.640625 -0.109375 L 25.640625 0 L 18.25 0 L 18.25 -0.578125 L 11.8125 -9.65625 L 7.8125 -9.65625 L 7.8125 -1.953125 C 7.8125 -1.335938 8.066406 -0.910156 8.578125 -0.671875 C 9.085938 -0.429688 9.695312 -0.265625 10.40625 -0.171875 L 10.40625 0 L 0.515625 0 L 0.515625 -0.171875 C 1.222656 -0.265625 1.832031 -0.429688 2.34375 -0.671875 C 2.851562 -0.910156 3.109375 -1.335938 3.109375 -1.953125 L 3.109375 -22.015625 C 3.109375 -22.628906 2.851562 -23.054688 2.34375 -23.296875 C 1.832031 -23.535156 1.222656 -23.703125 0.515625 -23.796875 L 0.515625 -23.96875 L 13.421875 -23.96875 C 16.472656 -23.96875 18.84375 -23.445312 20.53125 -22.40625 C 22.226562 -21.363281 23.078125 -19.726562 23.078125 -17.5 C 23.078125 -15.78125 22.484375 -14.273438 21.296875 -12.984375 C 20.109375 -11.703125 18.472656 -10.773438 16.390625 -10.203125 Z M 7.8125 -23.34375 L 7.8125 -10.984375 C 9.632812 -10.460938 11.445312 -10.203125 13.25 -10.203125 C 14.414062 -10.203125 15.378906 -10.359375 16.140625 -10.671875 C 16.898438 -10.992188 17.472656 -11.582031 17.859375 -12.4375 C 18.253906 -13.300781 18.453125 -14.519531 18.453125 -16.09375 C 18.453125 -17 18.363281 -17.878906 18.1875 -18.734375 C 18.019531 -19.597656 17.695312 -20.375 17.21875 -21.0625 C 16.738281 -21.757812 16.039062 -22.3125 15.125 -22.71875 C 14.21875 -23.132812 13.035156 -23.34375 11.578125 -23.34375 Z M 7.8125 -23.34375 "/></g></g></g><g fill="#ff914d" fill-opacity="1"><g transform="translate(123.143325, 257.936981)"><g><path d="M 3.609375 0.109375 C 3.160156 0.109375 2.742188 0.03125 2.359375 -0.125 C 1.984375 -0.28125 1.65625 -0.5 1.375 -0.78125 C 1.101562 -1.0625 0.890625 -1.394531 0.734375 -1.78125 C 0.585938 -2.175781 0.515625 -2.601562 0.515625 -3.0625 C 0.515625 -3.53125 0.585938 -3.957031 0.734375 -4.34375 C 0.890625 -4.726562 1.101562 -5.0625 1.375 -5.34375 C 1.65625 -5.632812 1.984375 -5.859375 2.359375 -6.015625 C 2.742188 -6.171875 3.160156 -6.25 3.609375 -6.25 C 4.097656 -6.25 4.546875 -6.160156 4.953125 -5.984375 C 5.359375 -5.804688 5.703125 -5.550781 5.984375 -5.21875 C 6.273438 -4.882812 6.488281 -4.492188 6.625 -4.046875 L 5.796875 -4.046875 C 5.640625 -4.492188 5.367188 -4.84375 4.984375 -5.09375 C 4.597656 -5.351562 4.148438 -5.484375 3.640625 -5.484375 C 3.179688 -5.484375 2.773438 -5.378906 2.421875 -5.171875 C 2.078125 -4.960938 1.800781 -4.675781 1.59375 -4.3125 C 1.394531 -3.957031 1.296875 -3.539062 1.296875 -3.0625 C 1.296875 -2.59375 1.394531 -2.175781 1.59375 -1.8125 C 1.800781 -1.445312 2.078125 -1.160156 2.421875 -0.953125 C 2.773438 -0.753906 3.179688 -0.65625 3.640625 -0.65625 C 4.160156 -0.65625 4.617188 -0.789062 5.015625 -1.0625 C 5.421875 -1.332031 5.703125 -1.695312 5.859375 -2.15625 L 6.671875 -2.15625 C 6.554688 -1.695312 6.347656 -1.296875 6.046875 -0.953125 C 5.753906 -0.617188 5.398438 -0.359375 4.984375 -0.171875 C 4.566406 0.015625 4.109375 0.109375 3.609375 0.109375 Z M 3.609375 0.109375 "/></g></g></g><g fill="#ff914d" fill-opacity="1"><g transform="translate(132.577568, 257.936981)"><g><path d="M 0.890625 0 L 0.890625 -6.140625 L 1.671875 -6.140625 L 1.671875 -0.734375 L 4.640625 -0.734375 L 4.640625 0 Z M 0.890625 0 "/></g></g></g><g fill="#ff914d" fill-opacity="1"><g transform="translate(139.775992, 257.936981)"><g><path d="M 0.890625 0 L 0.890625 -6.140625 L 4.625 -6.140625 L 4.625 -5.421875 L 1.671875 -5.421875 L 1.671875 -3.484375 L 4.40625 -3.484375 L 4.40625 -2.765625 L 1.671875 -2.765625 L 1.671875 -0.71875 L 4.71875 -0.71875 L 4.71875 0 Z M 0.890625 0 "/></g></g></g><g fill="#ff914d" fill-opacity="1"><g transform="translate(147.342676, 257.936981)"><g><path d="M 0.15625 0 L 2.671875 -6.140625 L 3.390625 -6.140625 L 5.921875 0 L 5.109375 0 L 4.515625 -1.390625 L 1.53125 -1.390625 L 0.96875 0 Z M 1.828125 -2.109375 L 4.234375 -2.109375 L 3.03125 -5.0625 Z M 1.828125 -2.109375 "/></g></g></g><g fill="#ff914d" fill-opacity="1"><g transform="translate(155.689702, 257.936981)"><g><path d="M 0.890625 0 L 0.890625 -6.140625 L 1.625 -6.140625 L 5.015625 -1.328125 L 5.015625 -6.140625 L 5.765625 -6.140625 L 5.765625 0 L 5.046875 0 L 1.65625 -4.796875 L 1.65625 0 Z M 0.890625 0 "/></g></g></g><g fill="#ff914d" fill-opacity="1"><g transform="translate(164.632948, 257.936981)"><g><path d="M 0.890625 0 L 0.890625 -6.140625 L 1.671875 -6.140625 L 1.671875 0 Z M 0.890625 0 "/></g></g></g><g fill="#ff914d" fill-opacity="1"><g transform="translate(169.472814, 257.936981)"><g><path d="M 0.890625 0 L 0.890625 -6.140625 L 1.625 -6.140625 L 5.015625 -1.328125 L 5.015625 -6.140625 L 5.765625 -6.140625 L 5.765625 0 L 5.046875 0 L 1.65625 -4.796875 L 1.65625 0 Z M 0.890625 0 "/></g></g></g><g fill="#ff914d" fill-opacity="1"><g transform="translate(178.41606, 257.936981)"><g><path d="M 3.625 0.109375 C 3.175781 0.109375 2.757812 0.03125 2.375 -0.125 C 2 -0.28125 1.671875 -0.5 1.390625 -0.78125 C 1.109375 -1.0625 0.890625 -1.394531 0.734375 -1.78125 C 0.585938 -2.175781 0.515625 -2.601562 0.515625 -3.0625 C 0.515625 -3.53125 0.585938 -3.957031 0.734375 -4.34375 C 0.890625 -4.726562 1.109375 -5.0625 1.390625 -5.34375 C 1.671875 -5.632812 2 -5.859375 2.375 -6.015625 C 2.75 -6.171875 3.160156 -6.25 3.609375 -6.25 C 4.078125 -6.25 4.507812 -6.160156 4.90625 -5.984375 C 5.300781 -5.816406 5.644531 -5.582031 5.9375 -5.28125 C 6.226562 -4.976562 6.4375 -4.625 6.5625 -4.21875 L 5.71875 -4.21875 C 5.53125 -4.625 5.253906 -4.9375 4.890625 -5.15625 C 4.523438 -5.375 4.109375 -5.484375 3.640625 -5.484375 C 3.179688 -5.484375 2.773438 -5.378906 2.421875 -5.171875 C 2.066406 -4.960938 1.789062 -4.675781 1.59375 -4.3125 C 1.394531 -3.957031 1.296875 -3.539062 1.296875 -3.0625 C 1.296875 -2.59375 1.394531 -2.175781 1.59375 -1.8125 C 1.800781 -1.445312 2.082031 -1.160156 2.4375 -0.953125 C 2.789062 -0.753906 3.191406 -0.65625 3.640625 -0.65625 C 4.054688 -0.65625 4.425781 -0.734375 4.75 -0.890625 C 5.070312 -1.054688 5.332031 -1.285156 5.53125 -1.578125 C 5.738281 -1.867188 5.867188 -2.207031 5.921875 -2.59375 L 3.421875 -2.59375 L 3.421875 -3.328125 L 6.75 -3.328125 C 6.757812 -2.660156 6.632812 -2.066406 6.375 -1.546875 C 6.113281 -1.023438 5.75 -0.617188 5.28125 -0.328125 C 4.8125 -0.0351562 4.257812 0.109375 3.625 0.109375 Z M 3.625 0.109375 "/></g></g></g><g fill="#ff914d" fill-opacity="1"><g transform="translate(187.929217, 257.936981)"><g/></g></g><g fill="#ff914d" fill-opacity="1"><g transform="translate(192.383301, 257.936981)"><g><path d="M 2.9375 0.109375 C 2.445312 0.109375 2.019531 0.0234375 1.65625 -0.140625 C 1.300781 -0.304688 1.023438 -0.535156 0.828125 -0.828125 C 0.628906 -1.128906 0.53125 -1.484375 0.53125 -1.890625 L 1.296875 -1.890625 C 1.304688 -1.492188 1.460938 -1.179688 1.765625 -0.953125 C 2.066406 -0.734375 2.457031 -0.625 2.9375 -0.625 C 3.363281 -0.625 3.703125 -0.707031 3.953125 -0.875 C 4.210938 -1.039062 4.34375 -1.28125 4.34375 -1.59375 C 4.34375 -1.875 4.21875 -2.097656 3.96875 -2.265625 C 3.726562 -2.441406 3.332031 -2.59375 2.78125 -2.71875 C 2.019531 -2.90625 1.460938 -3.140625 1.109375 -3.421875 C 0.765625 -3.703125 0.59375 -4.082031 0.59375 -4.5625 C 0.59375 -5.082031 0.789062 -5.492188 1.1875 -5.796875 C 1.582031 -6.097656 2.113281 -6.25 2.78125 -6.25 C 3.476562 -6.25 4.023438 -6.078125 4.421875 -5.734375 C 4.816406 -5.390625 5.019531 -4.921875 5.03125 -4.328125 L 4.265625 -4.328125 C 4.265625 -4.691406 4.128906 -4.976562 3.859375 -5.1875 C 3.597656 -5.40625 3.238281 -5.515625 2.78125 -5.515625 C 2.34375 -5.515625 2 -5.425781 1.75 -5.25 C 1.507812 -5.082031 1.390625 -4.851562 1.390625 -4.5625 C 1.390625 -4.3125 1.503906 -4.097656 1.734375 -3.921875 C 1.960938 -3.742188 2.375 -3.582031 2.96875 -3.4375 C 3.75 -3.25 4.304688 -3.007812 4.640625 -2.71875 C 4.972656 -2.425781 5.140625 -2.054688 5.140625 -1.609375 C 5.140625 -1.078125 4.9375 -0.65625 4.53125 -0.34375 C 4.132812 -0.0390625 3.601562 0.109375 2.9375 0.109375 Z M 2.9375 0.109375 "/></g></g></g><g fill="#ff914d" fill-opacity="1"><g transform="translate(200.335771, 257.936981)"><g><path d="M 0.890625 0 L 0.890625 -6.140625 L 4.625 -6.140625 L 4.625 -5.421875 L 1.671875 -5.421875 L 1.671875 -3.484375 L 4.40625 -3.484375 L 4.40625 -2.765625 L 1.671875 -2.765625 L 1.671875 -0.71875 L 4.71875 -0.71875 L 4.71875 0 Z M 0.890625 0 "/></g></g></g><g fill="#ff914d" fill-opacity="1"><g transform="translate(207.902456, 257.936981)"><g><path d="M 0.890625 0 L 0.890625 -6.140625 L 3.234375 -6.140625 C 3.660156 -6.140625 4.03125 -6.054688 4.34375 -5.890625 C 4.664062 -5.734375 4.910156 -5.507812 5.078125 -5.21875 C 5.253906 -4.925781 5.34375 -4.570312 5.34375 -4.15625 C 5.34375 -3.664062 5.210938 -3.257812 4.953125 -2.9375 C 4.703125 -2.613281 4.351562 -2.394531 3.90625 -2.28125 L 5.4375 0 L 4.515625 0 L 3.015625 -2.203125 L 1.671875 -2.203125 L 1.671875 0 Z M 1.671875 -2.9375 L 3.140625 -2.9375 C 3.597656 -2.9375 3.945312 -3.039062 4.1875 -3.25 C 4.4375 -3.46875 4.5625 -3.769531 4.5625 -4.15625 C 4.5625 -4.550781 4.4375 -4.859375 4.1875 -5.078125 C 3.945312 -5.296875 3.597656 -5.40625 3.140625 -5.40625 L 1.671875 -5.40625 Z M 1.671875 -2.9375 "/></g></g></g><g fill="#ff914d" fill-opacity="1"><g transform="translate(216.153036, 257.936981)"><g><path d="M 2.59375 0 L 0.15625 -6.140625 L 0.96875 -6.140625 L 1.984375 -3.546875 L 2.953125 -1.109375 L 3.90625 -3.546875 L 4.9375 -6.140625 L 5.75 -6.140625 L 3.3125 0 Z M 2.59375 0 "/></g></g></g><g fill="#ff914d" fill-opacity="1"><g transform="translate(224.333467, 257.936981)"><g><path d="M 0.890625 0 L 0.890625 -6.140625 L 1.671875 -6.140625 L 1.671875 0 Z M 0.890625 0 "/></g></g></g><g fill="#ff914d" fill-opacity="1"><g transform="translate(229.173331, 257.936981)"><g><path d="M 3.609375 0.109375 C 3.160156 0.109375 2.742188 0.03125 2.359375 -0.125 C 1.984375 -0.28125 1.65625 -0.5 1.375 -0.78125 C 1.101562 -1.0625 0.890625 -1.394531 0.734375 -1.78125 C 0.585938 -2.175781 0.515625 -2.601562 0.515625 -3.0625 C 0.515625 -3.53125 0.585938 -3.957031 0.734375 -4.34375 C 0.890625 -4.726562 1.101562 -5.0625 1.375 -5.34375 C 1.65625 -5.632812 1.984375 -5.859375 2.359375 -6.015625 C 2.742188 -6.171875 3.160156 -6.25 3.609375 -6.25 C 4.097656 -6.25 4.546875 -6.160156 4.953125 -5.984375 C 5.359375 -5.804688 5.703125 -5.550781 5.984375 -5.21875 C 6.273438 -4.882812 6.488281 -4.492188 6.625 -4.046875 L 5.796875 -4.046875 C 5.640625 -4.492188 5.367188 -4.84375 4.984375 -5.09375 C 4.597656 -5.351562 4.148438 -5.484375 3.640625 -5.484375 C 3.179688 -5.484375 2.773438 -5.378906 2.421875 -5.171875 C 2.078125 -4.960938 1.800781 -4.675781 1.59375 -4.3125 C 1.394531 -3.957031 1.296875 -3.539062 1.296875 -3.0625 C 1.296875 -2.59375 1.394531 -2.175781 1.59375 -1.8125 C 1.800781 -1.445312 2.078125 -1.160156 2.421875 -0.953125 C 2.773438 -0.753906 3.179688 -0.65625 3.640625 -0.65625 C 4.160156 -0.65625 4.617188 -0.789062 5.015625 -1.0625 C 5.421875 -1.332031 5.703125 -1.695312 5.859375 -2.15625 L 6.671875 -2.15625 C 6.554688 -1.695312 6.347656 -1.296875 6.046875 -0.953125 C 5.753906 -0.617188 5.398438 -0.359375 4.984375 -0.171875 C 4.566406 0.015625 4.109375 0.109375 3.609375 0.109375 Z M 3.609375 0.109375 "/></g></g></g><g fill="#ff914d" fill-opacity="1"><g transform="translate(238.607571, 257.936981)"><g><path d="M 0.890625 0 L 0.890625 -6.140625 L 4.625 -6.140625 L 4.625 -5.421875 L 1.671875 -5.421875 L 1.671875 -3.484375 L 4.40625 -3.484375 L 4.40625 -2.765625 L 1.671875 -2.765625 L 1.671875 -0.71875 L 4.71875 -0.71875 L 4.71875 0 Z M 0.890625 0 "/></g></g></g><g fill="#ff914d" fill-opacity="1"><g transform="translate(246.17425, 257.936981)"><g><path d="M 2.9375 0.109375 C 2.445312 0.109375 2.019531 0.0234375 1.65625 -0.140625 C 1.300781 -0.304688 1.023438 -0.535156 0.828125 -0.828125 C 0.628906 -1.128906 0.53125 -1.484375 0.53125 -1.890625 L 1.296875 -1.890625 C 1.304688 -1.492188 1.460938 -1.179688 1.765625 -0.953125 C 2.066406 -0.734375 2.457031 -0.625 2.9375 -0.625 C 3.363281 -0.625 3.703125 -0.707031 3.953125 -0.875 C 4.210938 -1.039062 4.34375 -1.28125 4.34375 -1.59375 C 4.34375 -1.875 4.21875 -2.097656 3.96875 -2.265625 C 3.726562 -2.441406 3.332031 -2.59375 2.78125 -2.71875 C 2.019531 -2.90625 1.460938 -3.140625 1.109375 -3.421875 C 0.765625 -3.703125 0.59375 -4.082031 0.59375 -4.5625 C 0.59375 -5.082031 0.789062 -5.492188 1.1875 -5.796875 C 1.582031 -6.097656 2.113281 -6.25 2.78125 -6.25 C 3.476562 -6.25 4.023438 -6.078125 4.421875 -5.734375 C 4.816406 -5.390625 5.019531 -4.921875 5.03125 -4.328125 L 4.265625 -4.328125 C 4.265625 -4.691406 4.128906 -4.976562 3.859375 -5.1875 C 3.597656 -5.40625 3.238281 -5.515625 2.78125 -5.515625 C 2.34375 -5.515625 2 -5.425781 1.75 -5.25 C 1.507812 -5.082031 1.390625 -4.851562 1.390625 -4.5625 C 1.390625 -4.3125 1.503906 -4.097656 1.734375 -3.921875 C 1.960938 -3.742188 2.375 -3.582031 2.96875 -3.4375 C 3.75 -3.25 4.304688 -3.007812 4.640625 -2.71875 C 4.972656 -2.425781 5.140625 -2.054688 5.140625 -1.609375 C 5.140625 -1.078125 4.9375 -0.65625 4.53125 -0.34375 C 4.132812 -0.0390625 3.601562 0.109375 2.9375 0.109375 Z M 2.9375 0.109375 "/></g></g></g></svg>